<?xml version="1.0" encoding="UTF-8"?><!DOCTYPE svg PUBLIC "-//W3C//DTD SVG 1.1//EN" "http://www.w3.org/Graphics/SVG/1.1/DTD/svg11.dtd"><svg xmlns="http://www.w3.org/2000/svg"><symbol id="icon-angle-pointing" viewBox="0 0 284.935 284.936">
    <path d="M110.488 142.468L222.694 30.264c1.902-1.903 2.854-4.093 2.854-6.567s-.951-4.664-2.854-6.563L208.417 2.857C206.513.955 204.324 0 201.856 0c-2.475 0-4.664.955-6.567 2.857L62.24 135.9c-1.903 1.903-2.852 4.093-2.852 6.567 0 2.475.949 4.664 2.852 6.567l133.042 133.043c1.906 1.906 4.097 2.857 6.571 2.857 2.471 0 4.66-.951 6.563-2.857l14.277-14.267c1.902-1.903 2.851-4.094 2.851-6.57 0-2.472-.948-4.661-2.851-6.564L110.488 142.468z"/>
</symbol><symbol id="icon-bell" viewBox="0 0 47.834 47.834">
    <path d="M46.878 41.834H.956l.005-1.005c.021-4.065 2.87-7.548 6.759-8.437V20.697C7.72 11.766 14.985 4.5 23.916 4.5c8.932 0 16.198 7.266 16.198 16.197v11.695c3.889.89 6.737 4.372 6.759 8.437l.005 1.005zm-43.836-2h41.75a6.72 6.72 0 0 0-5.8-5.61l-.878-.107v-13.42c0-7.828-6.369-14.197-14.198-14.197-7.828 0-14.196 6.369-14.196 14.197v13.419l-.878.107a6.718 6.718 0 0 0-5.8 5.611z"/>
    <path d="M21.125 5.988h-2V4.792A4.797 4.797 0 0 1 23.917 0a4.796 4.796 0 0 1 4.791 4.792v1.176h-2V4.792A2.795 2.795 0 0 0 23.917 2a2.796 2.796 0 0 0-2.792 2.792v1.196z"/>
    <path d="M23.903 47.834c-3.941 0-7.375-2.799-8.164-6.656l1.959-.4a6.353 6.353 0 0 0 6.205 5.057 6.327 6.327 0 0 0 6.228-5.18l1.967.361a8.325 8.325 0 0 1-8.195 6.818z"/>
    <path d="M8.72 32.231h3.682v2H8.72z"/>
    <path d="M18.167 32.231h20.947v2H18.167z"/>
</symbol><symbol id="icon-checked" viewBox="0 0 426.667 426.667">
    <path d="M213.333 0C95.518 0 0 95.514 0 213.333s95.518 213.333 213.333 213.333c117.828 0 213.333-95.514 213.333-213.333S331.157 0 213.333 0zm-39.134 322.918l-93.935-93.931 31.309-31.309 62.626 62.622 140.894-140.898 31.309 31.309-172.203 172.207z"/>
</symbol><symbol id="icon-delete" viewBox="-40 0 427 427.00131">
    <path d="M232.398 154.703c-5.523 0-10 4.477-10 10v189c0 5.52 4.477 10 10 10 5.524 0 10-4.48 10-10v-189c0-5.523-4.476-10-10-10zm0 0"/>
    <path d="M114.398 154.703c-5.523 0-10 4.477-10 10v189c0 5.52 4.477 10 10 10 5.524 0 10-4.48 10-10v-189c0-5.523-4.476-10-10-10zm0 0"/>
    <path d="M28.398 127.121V373.5c0 14.563 5.34 28.238 14.668 38.05A49.246 49.246 0 0 0 78.796 427H268a49.233 49.233 0 0 0 35.73-15.45c9.329-9.812 14.668-23.487 14.668-38.05V127.121c18.543-4.922 30.559-22.836 28.079-41.863-2.485-19.024-18.692-33.254-37.88-33.258h-51.199V39.5a39.289 39.289 0 0 0-11.539-28.031A39.288 39.288 0 0 0 217.797 0H129a39.288 39.288 0 0 0-28.063 11.469A39.289 39.289 0 0 0 89.398 39.5V52H38.2C19.012 52.004 2.805 66.234.32 85.258c-2.48 19.027 9.535 36.941 28.078 41.863zM268 407H78.797c-17.098 0-30.399-14.688-30.399-33.5V128h250v245.5c0 18.813-13.3 33.5-30.398 33.5zM109.398 39.5a19.25 19.25 0 0 1 5.676-13.895A19.26 19.26 0 0 1 129 20h88.797a19.26 19.26 0 0 1 13.926 5.605 19.244 19.244 0 0 1 5.675 13.895V52h-128zM38.2 72h270.399c9.941 0 18 8.059 18 18s-8.059 18-18 18H38.199c-9.941 0-18-8.059-18-18s8.059-18 18-18zm0 0"/>
    <path d="M173.398 154.703c-5.523 0-10 4.477-10 10v189c0 5.52 4.477 10 10 10 5.524 0 10-4.48 10-10v-189c0-5.523-4.476-10-10-10zm0 0"/>
</symbol><symbol id="icon-down-arrow" viewBox="0 0 306 306">
    <path d="M35.7 58.65L153 175.951 270.3 58.65 306 94.351 153 247.35 0 94.351z"/>
</symbol><symbol id="icon-edit" viewBox="0 0 469.331 469.331">
    <path d="M438.931 30.403c-40.4-40.5-106.1-40.5-146.5 0l-268.6 268.5c-2.1 2.1-3.4 4.8-3.8 7.7l-19.9 147.4c-.6 4.2.9 8.4 3.8 11.3 2.5 2.5 6 4 9.5 4 .6 0 1.2 0 1.8-.1l88.8-12c7.4-1 12.6-7.8 11.6-15.2-1-7.4-7.8-12.6-15.2-11.6l-71.2 9.6 13.9-102.8 108.2 108.2c2.5 2.5 6 4 9.5 4s7-1.4 9.5-4l268.6-268.5c19.6-19.6 30.4-45.6 30.4-73.3s-10.8-53.7-30.4-73.2zm-141.3 33l45.1 45.1-245.1 245.1-45.1-45.1 245.1-245.1zm-136.7 353.4l-44.1-44.1 245.1-245.1 44.1 44.1-245.1 245.1zm263.9-264.4l-107.9-107.9c13.7-11.3 30.8-17.5 48.8-17.5 20.5 0 39.7 8 54.2 22.4s22.4 33.7 22.4 54.2c0 18.1-6.2 35.1-17.5 48.8z"/>
</symbol><symbol id="icon-left-arrow" viewBox="0 0 31.494 31.494">
    <path d="M10.273 5.009a1.112 1.112 0 0 1 1.587 0 1.12 1.12 0 0 1 0 1.571l-8.047 8.047h26.554c.619 0 1.127.492 1.127 1.111s-.508 1.127-1.127 1.127H3.813l8.047 8.032c.429.444.429 1.159 0 1.587a1.112 1.112 0 0 1-1.587 0L.321 16.532a1.12 1.12 0 0 1 0-1.571l9.952-9.952z"/>
</symbol><symbol id="icon-more" viewBox="0 0 60 60">
    <path d="M8 22c-4.411 0-8 3.589-8 8s3.589 8 8 8 8-3.589 8-8-3.589-8-8-8z"/>
    <path d="M52 22c-4.411 0-8 3.589-8 8s3.589 8 8 8 8-3.589 8-8-3.589-8-8-8z"/>
    <path d="M30 22c-4.411 0-8 3.589-8 8s3.589 8 8 8 8-3.589 8-8-3.589-8-8-8z"/>
</symbol><symbol id="icon-plus" viewBox="0 0 491.86 491.86">
    <path d="M465.167 211.614H280.245V26.691c0-8.424-11.439-26.69-34.316-26.69s-34.316 18.267-34.316 26.69v184.924H26.69C18.267 211.614 0 223.053 0 245.929s18.267 34.316 26.69 34.316h184.924v184.924c0 8.422 11.438 26.69 34.316 26.69s34.316-18.268 34.316-26.69V280.245H465.17c8.422 0 26.69-11.438 26.69-34.316s-18.27-34.315-26.693-34.315z"/>
</symbol><symbol id="icon-right-arrow" viewBox="0 0 31.49 31.49">
    <path d="M21.205 5.007a1.112 1.112 0 0 0-1.587 0 1.12 1.12 0 0 0 0 1.571l8.047 8.047H1.111A1.106 1.106 0 0 0 0 15.737c0 .619.492 1.127 1.111 1.127h26.554l-8.047 8.032c-.429.444-.429 1.159 0 1.587a1.112 1.112 0 0 0 1.587 0l9.952-9.952a1.093 1.093 0 0 0 0-1.571l-9.952-9.953z"/>
</symbol><symbol id="icon-search" viewBox="0 0 250.313 250.313">
    <path d="M244.186 214.604l-54.379-54.378c-.289-.289-.628-.491-.93-.76 10.7-16.231 16.945-35.66 16.945-56.554C205.822 46.075 159.747 0 102.911 0S0 46.075 0 102.911c0 56.835 46.074 102.911 102.91 102.911 20.895 0 40.323-6.245 56.554-16.945.269.301.47.64.759.929l54.38 54.38c8.169 8.168 21.413 8.168 29.583 0 8.168-8.169 8.168-21.413 0-29.582zm-141.275-44.458c-37.134 0-67.236-30.102-67.236-67.235 0-37.134 30.103-67.236 67.236-67.236 37.132 0 67.235 30.103 67.235 67.236s-30.103 67.235-67.235 67.235z" fill-rule="evenodd" clip-rule="evenodd"/>
</symbol><symbol id="icon-sort-arrows" viewBox="0 0 401.998 401.998">
    <path d="M73.092 164.452h255.813c4.949 0 9.233-1.807 12.848-5.424 3.613-3.616 5.427-7.898 5.427-12.847s-1.813-9.229-5.427-12.85L213.846 5.424C210.232 1.812 205.951 0 200.999 0s-9.233 1.812-12.85 5.424L60.242 133.331c-3.617 3.617-5.424 7.901-5.424 12.85 0 4.948 1.807 9.231 5.424 12.847 3.621 3.617 7.902 5.424 12.85 5.424z"/>
    <path d="M328.905 237.549H73.092c-4.952 0-9.233 1.808-12.85 5.421-3.617 3.617-5.424 7.898-5.424 12.847s1.807 9.233 5.424 12.848L188.149 396.57c3.621 3.617 7.902 5.428 12.85 5.428s9.233-1.811 12.847-5.428l127.907-127.906c3.613-3.614 5.427-7.898 5.427-12.848 0-4.948-1.813-9.229-5.427-12.847-3.614-3.616-7.899-5.42-12.848-5.42z"/>
</symbol></svg>