<?xml version="1.0" encoding="UTF-8"?><!DOCTYPE svg PUBLIC "-//W3C//DTD SVG 1.1//EN" "http://www.w3.org/Graphics/SVG/1.1/DTD/svg11.dtd"><svg xmlns="http://www.w3.org/2000/svg"><symbol id="icon-checked" viewBox="0 0 426.667 426.667">
    <path d="M213.333 0C95.518 0 0 95.514 0 213.333s95.518 213.333 213.333 213.333c117.828 0 213.333-95.514 213.333-213.333S331.157 0 213.333 0zm-39.134 322.918l-93.935-93.931 31.309-31.309 62.626 62.622 140.894-140.898 31.309 31.309-172.203 172.207z"/>
</symbol><symbol id="icon-left-arrow" viewBox="0 0 31.494 31.494">
    <path d="M10.273 5.009a1.112 1.112 0 0 1 1.587 0 1.12 1.12 0 0 1 0 1.571l-8.047 8.047h26.554c.619 0 1.127.492 1.127 1.111s-.508 1.127-1.127 1.127H3.813l8.047 8.032c.429.444.429 1.159 0 1.587a1.112 1.112 0 0 1-1.587 0L.321 16.532a1.12 1.12 0 0 1 0-1.571l9.952-9.952z"/>
</symbol><symbol id="icon-right-arrow" viewBox="0 0 31.49 31.49">
    <path d="M21.205 5.007a1.112 1.112 0 0 0-1.587 0 1.12 1.12 0 0 0 0 1.571l8.047 8.047H1.111A1.106 1.106 0 0 0 0 15.737c0 .619.492 1.127 1.111 1.127h26.554l-8.047 8.032c-.429.444-.429 1.159 0 1.587a1.112 1.112 0 0 0 1.587 0l9.952-9.952a1.093 1.093 0 0 0 0-1.571l-9.952-9.953z"/>
</symbol></svg>