<?xml version="1.0" encoding="UTF-8"?><!DOCTYPE svg PUBLIC "-//W3C//DTD SVG 1.1//EN" "http://www.w3.org/Graphics/SVG/1.1/DTD/svg11.dtd"><svg xmlns="http://www.w3.org/2000/svg"><symbol id="icon-angle-pointing" viewBox="0 0 284.935 284.936">
    <path d="M110.488 142.468L222.694 30.264c1.902-1.903 2.854-4.093 2.854-6.567s-.951-4.664-2.854-6.563L208.417 2.857C206.513.955 204.324 0 201.856 0c-2.475 0-4.664.955-6.567 2.857L62.24 135.9c-1.903 1.903-2.852 4.093-2.852 6.567 0 2.475.949 4.664 2.852 6.567l133.042 133.043c1.906 1.906 4.097 2.857 6.571 2.857 2.471 0 4.66-.951 6.563-2.857l14.277-14.267c1.902-1.903 2.851-4.094 2.851-6.57 0-2.472-.948-4.661-2.851-6.564L110.488 142.468z"/>
</symbol><symbol id="icon-bell" viewBox="0 0 47.834 47.834">
    <path d="M46.878 41.834H.956l.005-1.005c.021-4.065 2.87-7.548 6.759-8.437V20.697C7.72 11.766 14.985 4.5 23.916 4.5c8.932 0 16.198 7.266 16.198 16.197v11.695c3.889.89 6.737 4.372 6.759 8.437l.005 1.005zm-43.836-2h41.75a6.72 6.72 0 0 0-5.8-5.61l-.878-.107v-13.42c0-7.828-6.369-14.197-14.198-14.197-7.828 0-14.196 6.369-14.196 14.197v13.419l-.878.107a6.718 6.718 0 0 0-5.8 5.611z"/>
    <path d="M21.125 5.988h-2V4.792A4.797 4.797 0 0 1 23.917 0a4.796 4.796 0 0 1 4.791 4.792v1.176h-2V4.792A2.795 2.795 0 0 0 23.917 2a2.796 2.796 0 0 0-2.792 2.792v1.196z"/>
    <path d="M23.903 47.834c-3.941 0-7.375-2.799-8.164-6.656l1.959-.4a6.353 6.353 0 0 0 6.205 5.057 6.327 6.327 0 0 0 6.228-5.18l1.967.361a8.325 8.325 0 0 1-8.195 6.818z"/>
    <path d="M8.72 32.231h3.682v2H8.72z"/>
    <path d="M18.167 32.231h20.947v2H18.167z"/>
</symbol><symbol id="icon-checked-1" viewBox="0 0 26 26">
    <path d="M.3 14c-.2-.2-.3-.5-.3-.7s.1-.5.3-.7l1.4-1.4c.4-.4 1-.4 1.4 0l.1.1 5.5 5.9c.2.2.5.2.7 0L22.8 3.3h.1c.4-.4 1-.4 1.4 0l1.4 1.4c.4.4.4 1 0 1.4l-16 16.6c-.2.2-.4.3-.7.3-.3 0-.5-.1-.7-.3L.5 14.3.3 14z"/>
</symbol><symbol id="icon-checked" viewBox="0 0 426.667 426.667">
    <path d="M213.333 0C95.518 0 0 95.514 0 213.333s95.518 213.333 213.333 213.333c117.828 0 213.333-95.514 213.333-213.333S331.157 0 213.333 0zm-39.134 322.918l-93.935-93.931 31.309-31.309 62.626 62.622 140.894-140.898 31.309 31.309-172.203 172.207z"/>
</symbol><symbol id="icon-delete" viewBox="-40 0 427 427.00131">
    <path d="M232.398 154.703c-5.523 0-10 4.477-10 10v189c0 5.52 4.477 10 10 10 5.524 0 10-4.48 10-10v-189c0-5.523-4.476-10-10-10zm0 0"/>
    <path d="M114.398 154.703c-5.523 0-10 4.477-10 10v189c0 5.52 4.477 10 10 10 5.524 0 10-4.48 10-10v-189c0-5.523-4.476-10-10-10zm0 0"/>
    <path d="M28.398 127.121V373.5c0 14.563 5.34 28.238 14.668 38.05A49.246 49.246 0 0 0 78.796 427H268a49.233 49.233 0 0 0 35.73-15.45c9.329-9.812 14.668-23.487 14.668-38.05V127.121c18.543-4.922 30.559-22.836 28.079-41.863-2.485-19.024-18.692-33.254-37.88-33.258h-51.199V39.5a39.289 39.289 0 0 0-11.539-28.031A39.288 39.288 0 0 0 217.797 0H129a39.288 39.288 0 0 0-28.063 11.469A39.289 39.289 0 0 0 89.398 39.5V52H38.2C19.012 52.004 2.805 66.234.32 85.258c-2.48 19.027 9.535 36.941 28.078 41.863zM268 407H78.797c-17.098 0-30.399-14.688-30.399-33.5V128h250v245.5c0 18.813-13.3 33.5-30.398 33.5zM109.398 39.5a19.25 19.25 0 0 1 5.676-13.895A19.26 19.26 0 0 1 129 20h88.797a19.26 19.26 0 0 1 13.926 5.605 19.244 19.244 0 0 1 5.675 13.895V52h-128zM38.2 72h270.399c9.941 0 18 8.059 18 18s-8.059 18-18 18H38.199c-9.941 0-18-8.059-18-18s8.059-18 18-18zm0 0"/>
    <path d="M173.398 154.703c-5.523 0-10 4.477-10 10v189c0 5.52 4.477 10 10 10 5.524 0 10-4.48 10-10v-189c0-5.523-4.476-10-10-10zm0 0"/>
</symbol><symbol id="icon-down-arrow" viewBox="0 0 306 306">
    <path d="M35.7 58.65L153 175.951 270.3 58.65 306 94.351 153 247.35 0 94.351z"/>
</symbol><symbol id="icon-download" viewBox="0 0 29.978 29.978">
    <path d="M25.462 19.105v6.848H4.515v-6.848H.489v8.861c0 1.111.9 2.012 2.016 2.012h24.967c1.115 0 2.016-.9 2.016-2.012v-8.861h-4.026z"/>
    <path d="M14.62 18.426l-5.764-6.965s-.877-.828.074-.828h3.248V9.217.494S12.049 0 12.793 0h4.572c.536 0 .524.416.524.416V10.424h2.998c1.154 0 .285.867.285.867s-4.904 6.51-5.588 7.193c-.492.495-.964-.058-.964-.058z"/>
</symbol><symbol id="icon-edit" viewBox="0 0 469.331 469.331">
    <path d="M438.931 30.403c-40.4-40.5-106.1-40.5-146.5 0l-268.6 268.5c-2.1 2.1-3.4 4.8-3.8 7.7l-19.9 147.4c-.6 4.2.9 8.4 3.8 11.3 2.5 2.5 6 4 9.5 4 .6 0 1.2 0 1.8-.1l88.8-12c7.4-1 12.6-7.8 11.6-15.2-1-7.4-7.8-12.6-15.2-11.6l-71.2 9.6 13.9-102.8 108.2 108.2c2.5 2.5 6 4 9.5 4s7-1.4 9.5-4l268.6-268.5c19.6-19.6 30.4-45.6 30.4-73.3s-10.8-53.7-30.4-73.2zm-141.3 33l45.1 45.1-245.1 245.1-45.1-45.1 245.1-245.1zm-136.7 353.4l-44.1-44.1 245.1-245.1 44.1 44.1-245.1 245.1zm263.9-264.4l-107.9-107.9c13.7-11.3 30.8-17.5 48.8-17.5 20.5 0 39.7 8 54.2 22.4s22.4 33.7 22.4 54.2c0 18.1-6.2 35.1-17.5 48.8z"/>
</symbol><symbol id="icon-fb" viewBox="0 0 10 19">
    <title>
        facebook
    </title>
    <path d="M9.766.157v2.946H8.014c-.64 0-1.071.134-1.295.402-.223.268-.335.67-.335 1.205v2.11h3.27l-.435 3.303H6.384v8.471H2.97v-8.47H.123V6.82H2.97V4.387c0-1.384.387-2.457 1.161-3.22C4.904.404 5.934.023 7.222.023c1.093 0 1.941.045 2.544.134z" fill-rule="evenodd"/>
</symbol><symbol id="icon-in" viewBox="0 0 430.117 430.117">
    <path d="M430.117 261.543V420.56h-92.188V272.193c0-37.271-13.334-62.707-46.703-62.707-25.473 0-40.632 17.142-47.301 33.724-2.432 5.928-3.058 14.179-3.058 22.477V420.56h-92.219s1.242-251.285 0-277.32h92.21v39.309c-.187.294-.43.611-.606.896h.606v-.896c12.251-18.869 34.13-45.824 83.102-45.824 60.673-.001 106.157 39.636 106.157 124.818zM52.183 9.558C20.635 9.558 0 30.251 0 57.463c0 26.619 20.038 47.94 50.959 47.94h.616c32.159 0 52.159-21.317 52.159-47.94-.606-27.212-20-47.905-51.551-47.905zM5.477 420.56h92.184V143.24H5.477v277.32z"/>
</symbol><symbol id="icon-left-arrow" viewBox="0 0 31.494 31.494">
    <path d="M10.273 5.009a1.112 1.112 0 0 1 1.587 0 1.12 1.12 0 0 1 0 1.571l-8.047 8.047h26.554c.619 0 1.127.492 1.127 1.111s-.508 1.127-1.127 1.127H3.813l8.047 8.032c.429.444.429 1.159 0 1.587a1.112 1.112 0 0 1-1.587 0L.321 16.532a1.12 1.12 0 0 1 0-1.571l9.952-9.952z"/>
</symbol><symbol id="icon-logout" viewBox="0 0 512 512">
    <path d="M243.6 6.3L205 61.1c-7 9.9.1 23.6 12.3 23.6h23.6l.1 263c0 8.3 6.7 15 15 15s15-6.7 15-15l-.1-263h23.6c12.2 0 19.2-13.8 12.2-23.6L268.1 6.3c-5.8-8.3-18.4-8.5-24.5 0z"/>
    <path d="M352.2 81.5c-4.1 7.2-1.7 16.3 5.5 20.5 60.9 35.2 101.9 101.1 101.9 176.3 0 112.3-91.2 203.6-203.5 203.7-112.3 0-203.6-91.2-203.7-203.5 0-75.3 40.9-141.2 101.7-176.4 7.2-4.2 9.6-13.3 5.5-20.5-4.2-7.2-13.3-9.6-20.5-5.5-70 40.6-116.7 116.3-116.7 202.4C22.5 407.6 127 512.1 256.1 512c129.1-.1 233.6-104.6 233.5-233.7 0-86.2-46.8-161.8-116.9-202.3-7.1-4.1-16.3-1.7-20.5 5.5z"/>
</symbol><symbol id="icon-more" viewBox="0 0 60 60">
    <path d="M8 22c-4.411 0-8 3.589-8 8s3.589 8 8 8 8-3.589 8-8-3.589-8-8-8z"/>
    <path d="M52 22c-4.411 0-8 3.589-8 8s3.589 8 8 8 8-3.589 8-8-3.589-8-8-8z"/>
    <path d="M30 22c-4.411 0-8 3.589-8 8s3.589 8 8 8 8-3.589 8-8-3.589-8-8-8z"/>
</symbol><symbol id="icon-plus" viewBox="0 0 491.86 491.86">
    <path d="M465.167 211.614H280.245V26.691c0-8.424-11.439-26.69-34.316-26.69s-34.316 18.267-34.316 26.69v184.924H26.69C18.267 211.614 0 223.053 0 245.929s18.267 34.316 26.69 34.316h184.924v184.924c0 8.422 11.438 26.69 34.316 26.69s34.316-18.268 34.316-26.69V280.245H465.17c8.422 0 26.69-11.438 26.69-34.316s-18.27-34.315-26.693-34.315z"/>
</symbol><symbol id="icon-quotes" viewBox="0 0 512.5 512.5">
    <path d="M112.5 208.25c61.856 0 112 50.145 112 112s-50.144 112-112 112-112-50.145-112-112l-.5-16c0-123.712 100.288-224 224-224v64c-42.737 0-82.917 16.643-113.137 46.863a162.322 162.322 0 0 0-15.915 18.51c5.719-.9 11.58-1.373 17.552-1.373zm288 0c61.855 0 112 50.145 112 112s-50.145 112-112 112-112-50.145-112-112l-.5-16c0-123.712 100.287-224 224-224v64c-42.736 0-82.918 16.643-113.137 46.863a162.23 162.23 0 0 0-15.916 18.51 112.84 112.84 0 0 1 17.553-1.373z"/>
</symbol><symbol id="icon-right-arrow" viewBox="0 0 31.49 31.49">
    <path d="M21.205 5.007a1.112 1.112 0 0 0-1.587 0 1.12 1.12 0 0 0 0 1.571l8.047 8.047H1.111A1.106 1.106 0 0 0 0 15.737c0 .619.492 1.127 1.111 1.127h26.554l-8.047 8.032c-.429.444-.429 1.159 0 1.587a1.112 1.112 0 0 0 1.587 0l9.952-9.952a1.093 1.093 0 0 0 0-1.571l-9.952-9.953z"/>
</symbol><symbol id="icon-search" viewBox="0 0 250.313 250.313">
    <path d="M244.186 214.604l-54.379-54.378c-.289-.289-.628-.491-.93-.76 10.7-16.231 16.945-35.66 16.945-56.554C205.822 46.075 159.747 0 102.911 0S0 46.075 0 102.911c0 56.835 46.074 102.911 102.91 102.911 20.895 0 40.323-6.245 56.554-16.945.269.301.47.64.759.929l54.38 54.38c8.169 8.168 21.413 8.168 29.583 0 8.168-8.169 8.168-21.413 0-29.582zm-141.275-44.458c-37.134 0-67.236-30.102-67.236-67.235 0-37.134 30.103-67.236 67.236-67.236 37.132 0 67.235 30.103 67.235 67.236s-30.103 67.235-67.235 67.235z" fill-rule="evenodd" clip-rule="evenodd"/>
</symbol><symbol id="icon-settings" viewBox="0 0 268.765 268.765">
    <path d="M267.92 119.461c-.425-3.778-4.83-6.617-8.639-6.617-12.315 0-23.243-7.231-27.826-18.414-4.682-11.454-1.663-24.812 7.515-33.231a7.463 7.463 0 0 0 .817-10.133 132.977 132.977 0 0 0-21.289-21.5c-3.063-2.458-7.557-2.116-10.213.825-8.01 8.871-22.398 12.168-33.516 7.529-11.57-4.867-18.866-16.591-18.152-29.176a7.455 7.455 0 0 0-6.595-7.849 134.163 134.163 0 0 0-30.232-.08 7.478 7.478 0 0 0-6.654 7.689c.438 12.461-6.946 23.98-18.401 28.672-10.985 4.487-25.272 1.218-33.266-7.574-2.642-2.896-7.063-3.252-10.141-.853a133.478 133.478 0 0 0-21.74 21.493c-2.481 3.086-2.116 7.559.802 10.214 9.353 8.47 12.373 21.944 7.514 33.53-4.639 11.046-16.109 18.165-29.24 18.165-4.261-.137-7.296 2.723-7.762 6.597a134.618 134.618 0 0 0-.058 30.561c.422 3.794 4.961 6.608 8.812 6.608 11.702-.299 22.937 6.946 27.65 18.415 4.698 11.454 1.678 24.804-7.514 33.23a7.469 7.469 0 0 0-.817 10.126 133.459 133.459 0 0 0 21.259 21.508c3.079 2.481 7.559 2.131 10.228-.81 8.04-8.893 22.427-12.184 33.501-7.536 11.599 4.852 18.895 16.575 18.181 29.167a7.464 7.464 0 0 0 6.595 7.85 133.572 133.572 0 0 0 30.233.081 7.479 7.479 0 0 0 6.653-7.696c-.451-12.454 6.946-23.973 18.386-28.657 11.059-4.517 25.286-1.211 33.281 7.572a7.51 7.51 0 0 0 10.142.848 133.787 133.787 0 0 0 21.74-21.494 7.461 7.461 0 0 0-.803-10.213c-9.353-8.47-12.388-21.946-7.529-33.524 4.568-10.899 15.612-18.217 27.491-18.217l1.662.043c3.853.313 7.398-2.655 7.865-6.588a134.504 134.504 0 0 0 .06-30.561zm-133.325 60.03c-24.718 0-44.824-20.106-44.824-44.824 0-24.717 20.106-44.824 44.824-44.824 24.717 0 44.823 20.107 44.823 44.824 0 24.718-20.106 44.824-44.823 44.824z" fill-rule="evenodd" clip-rule="evenodd"/>
</symbol><symbol id="icon-sort-arrows" viewBox="0 0 401.998 401.998">
    <path d="M73.092 164.452h255.813c4.949 0 9.233-1.807 12.848-5.424 3.613-3.616 5.427-7.898 5.427-12.847s-1.813-9.229-5.427-12.85L213.846 5.424C210.232 1.812 205.951 0 200.999 0s-9.233 1.812-12.85 5.424L60.242 133.331c-3.617 3.617-5.424 7.901-5.424 12.85 0 4.948 1.807 9.231 5.424 12.847 3.621 3.617 7.902 5.424 12.85 5.424z"/>
    <path d="M328.905 237.549H73.092c-4.952 0-9.233 1.808-12.85 5.421-3.617 3.617-5.424 7.898-5.424 12.847s1.807 9.233 5.424 12.848L188.149 396.57c3.621 3.617 7.902 5.428 12.85 5.428s9.233-1.811 12.847-5.428l127.907-127.906c3.613-3.614 5.427-7.898 5.427-12.848 0-4.948-1.813-9.229-5.427-12.847-3.614-3.616-7.899-5.42-12.848-5.42z"/>
</symbol><symbol id="icon-twitter" viewBox="0 0 612 612">
    <path d="M612 116.258a250.714 250.714 0 0 1-72.088 19.772c25.929-15.527 45.777-40.155 55.184-69.411-24.322 14.379-51.169 24.82-79.775 30.48-22.907-24.437-55.49-39.658-91.63-39.658-69.334 0-125.551 56.217-125.551 125.513 0 9.828 1.109 19.427 3.251 28.606-104.326-5.24-196.835-55.223-258.75-131.174-10.823 18.51-16.98 40.078-16.98 63.101 0 43.559 22.181 81.993 55.835 104.479a125.556 125.556 0 0 1-56.867-15.756v1.568c0 60.806 43.291 111.554 100.693 123.104-10.517 2.83-21.607 4.398-33.08 4.398-8.107 0-15.947-.803-23.634-2.333 15.985 49.907 62.336 86.199 117.253 87.194-42.947 33.654-97.099 53.655-155.916 53.655-10.134 0-20.116-.612-29.944-1.721 55.567 35.681 121.536 56.485 192.438 56.485 230.948 0 357.188-191.291 357.188-357.188l-.421-16.253c24.666-17.593 46.005-39.697 62.794-64.861z"/>
</symbol></svg>